<svg xmlns="http://www.w3.org/2000/svg" viewBox="0 0 900 650"><defs><linearGradient id="g" x1="0" x2="1"><stop stop-color="#dfeeff"/><stop offset="1" stop-color="#e9fff8"/></linearGradient></defs><rect width="900" height="650" rx="40" fill="url(#g)"/><circle cx="710" cy="115" r="70" fill="#fff" opacity=".8"/><circle cx="130" cy="540" r="90" fill="#fff" opacity=".55"/><path d="M170 505c10-160 85-250 205-250s205 90 215 250" fill="#fff"/><circle cx="375" cy="205" r="80" fill="#ffd6bc"/><path d="M300 200c10-105 160-110 170 0-40-35-115-38-170 0" fill="#4b3b3b"/><circle cx="350" cy="210" r="7" fill="#17324d"/><circle cx="405" cy="210" r="7" fill="#17324d"/><path d="M365 245q15 15 30 0" fill="none" stroke="#d67f79" stroke-width="6" stroke-linecap="round"/><path d="M430 520c15-140 70-220 150-220s135 80 150 220" fill="#55cdb1"/><circle cx="580" cy="255" r="70" fill="#e8ad83"/><path d="M515 245c-5-100 130-110 145-5-40-40-95-42-145 5" fill="#7b5a45"/><circle cx="558" cy="260" r="6" fill="#17324d"/><circle cx="605" cy="260" r="6" fill="#17324d"/><path d="M570 292q15 12 30 0" fill="none" stroke="#b86d65" stroke-width="5" stroke-linecap="round"/><path d="M525 345l55 65 55-65" fill="none" stroke="#fff" stroke-width="18"/><text x="70" y="90" font-family="Arial" font-size="28" font-weight="700" fill="#3478f6">LittleSteps</text><text x="70" y="120" font-family="Arial" font-size="18" fill="#66788a">Big care for little people.</text></svg>